<?xml version='1.0' encoding='utf-8'?>
<svg xmlns="http://www.w3.org/2000/svg" width="2070.75" height="531.8140000000001" viewBox="0.0 0.0 547.886 184.834"><g id="__topPaddingWrapper" transform="translate(0, 60)" data-top-padding="60.0"><path d="M4.59 124.411c-1.903-.661-2.824-1.408-3.712-3.012l-.78-1.409-.079-56.356L.1 5.917c.098-.832.488-1.908 1.005-2.771C1.782 2.016 2.26 1.578 3.518.935L5.087.134h40.235l41.269.365c.568.201 1.543.874 2.165 1.497 2.127 2.127 1.961-2.991 1.961 60.448 0 62.014.103 58.068-1.572 60.094-.436.528-1.363 1.242-2.058 1.588l-1.265.628-39.952.06c-37.408.056-40.037.03-41.281-.402zm80.42-5.233c.375-.375.416-5.888.416-56.734l-.416-56.734c-.374-.374-4.331-.416-39.601-.416L5.74 5.731c-.466.422-.484 2.529-.484 56.666l.438 56.712c.42.465 1.999.484 39.669.484l39.646-.416zm-47.474-14.675c-7.873-.954-14.687-3.396-20.626-7.391-2.447-1.646-5.568-4.162-5.568-4.489 0-.228 9.711-10.957 10.017-11.067.108-.039.893.469 1.743 1.13 6.135 4.764 12.472 7.011 19.774 7.011 6.497 0 10.729-2.007 12.708-6.028.818-1.661.869-1.933.865-4.55-.004-2.501-.08-2.937-.741-4.292-1.592-3.264-5.087-5.302-14.468-8.438-11.642-3.891-17.455-7.067-21.385-11.682-1.688-1.982-3.771-6.161-4.452-8.93-.669-2.719-.678-9.181-.016-11.61 1.122-4.118 2.624-6.846 5.404-9.818 3.098-3.312 6.817-5.598 11.859-7.29 7.991-2.683 19.863-2.566 28.338.279 4.251 1.427 9.516 4.478 12.646 7.33l1.569 1.429-4.679 5.461-4.679 5.461-1.885-1.418c-2.091-1.573-5.843-3.533-8.339-4.355-5.491-1.81-12.238-1.747-15.716.147-2.913 1.585-4.018 3.336-4.17 6.605-.241 5.183 2.201 7.213 13.313 11.066 10.485 3.636 13.496 4.955 17.707 7.754 7.559 5.026 10.736 11.157 10.736 20.716 0 7.074-2.138 12.855-6.423 17.366-4.595 4.837-10.37 7.748-18.077 9.11-3.578.632-12.077.905-15.451.497zm69.774 20.009c-1.715-.464-3.085-1.615-3.959-3.325l-.728-1.423v-57.32-57.32l.728-1.435c.892-1.759 2.47-3.006 4.301-3.398.94-.201 13.181-.289 40.445-.289 43.767 0 40.851-.128 43.041 1.891.666.614 1.353 1.583 1.629 2.297.454 1.177.477 3.951.477 58.254l-.363 58.044c-.493 1.397-2.034 3.043-3.474 3.712-1.189.552-1.229.553-41.01.603-31.896.04-40.072-.018-41.086-.292zm80.431-5.711c.492-.973.492-111.74 0-112.713l-.335-.661-39.232-.067c-26.743-.046-39.396.02-39.746.208-.506.271-.513 1.125-.513 56.873l.463 56.869c.311.181 13.389.251 39.746.212l39.283-.059zm-47.783-14.307c-5.436-.613-10.512-2.054-15.104-4.288-3.198-1.556-7.398-4.302-9.597-6.276l-1.522-1.366 3.543-3.881 5.123-5.597 1.58-1.716 1.161.942c3.576 2.9 8.492 5.441 12.539 6.481 3.529.907 9.361 1.161 12.303.535 7.329-1.558 10.857-7.486 8.408-14.128-1.261-3.421-4.844-5.602-14.229-8.66-14.448-4.709-20.97-8.999-24.552-16.148-1.563-3.12-2.185-6.144-2.188-10.638-.006-10.889 6.231-18.824 17.834-22.685 3.579-1.191 6.657-1.709 11.287-1.899 8.12-.333 15.647 1.107 21.71 4.155 2.516 1.265 6.309 3.818 8.128 5.471l1.395 1.268-4.674 5.466-4.674 5.466-1.787-1.3c-5.228-3.803-11.102-5.801-17.024-5.791-5.232.008-9.073 1.756-10.681 4.859-.586 1.131-.703 1.704-.707 3.471-.012 5.198 2.501 7.152 14.4 11.197 6.622 2.251 8.731 3.085 12.234 4.84 5.735 2.873 10.375 6.875 12.421 10.711 2.594 4.864 3.503 12.446 2.222 18.527-2.296 10.898-11.147 18.312-24.628 20.628-2.881.495-11.804.708-14.921.357zm69.872 20.003c-2.443-.767-4.025-2.511-4.541-5.004-.193-.934-.258-18.876-.21-57.842l.07-56.489.556-1.191a6.51 6.51 0 0 1 3.28-3.28l1.191-.556h40.356 40.356l1.313.676c1.478.761 2.881 2.422 3.291 3.895.381 1.373.381 114.105 0 115.477-.409 1.473-1.812 3.134-3.291 3.895l-1.313.676-39.959.051c-32.966.042-40.159-.012-41.1-.308zm80.232-5.318c.375-.375.416-5.901.416-56.876l-.512-56.734c-.346-.185-13.184-.274-39.673-.274h-39.161l-.412.588c-.37.528-.412 6.329-.412 56.562l.412 56.562.412.588h39.257l39.673-.416zm-68.64-59.512v-42.73h15.412c8.477 0 16.722.12 18.322.267 15.885 1.456 25.634 8.115 28.632 19.559.814 3.105 1.127 9.782.622 13.237-1.833 12.536-9.552 20.129-23.448 23.065-2.248.475-3.836.574-10.9.682l-8.268.126v14.262 14.262h-10.186-10.186zm33.159-.91c6.424-1.656 9.176-5.721 9.235-13.642.046-6.109-1.926-9.919-6.227-12.031-2.41-1.183-4.727-1.571-10.569-1.768l-5.226-.176v14.239 14.239l5.358-.164c4.097-.125 5.845-.289 7.428-.697zm125.705 45.48c-14.086-1.84-23.23-10.879-25.947-25.649-.563-3.062-.778-11.451-.378-14.741 1.845-15.148 10.373-25.209 23.962-28.267 1.099-.247 3.789-.477 6.615-.565 4.064-.126 5.231-.068 7.953.397 16.632 2.842 25.744 15.741 25.17 35.631-.151 5.251-.595 8.187-1.817 12.027-1.532 4.814-3.861 8.877-6.965 12.151-5.99 6.318-13.726 9.356-23.582 9.259-1.873-.018-4.128-.128-5.012-.243zm8.61-14.43c1.809-.537 3.038-1.323 4.42-2.825 1.813-1.97 2.879-4.619 3.698-9.192.617-3.442.622-12.578.009-16.16-1.072-6.262-3.204-9.916-6.758-11.582-1.345-.631-1.799-.701-4.537-.701-3.634 0-4.756.404-6.988 2.515-3.906 3.695-5.617 12.271-4.645 23.282.768 8.697 3.45 13.374 8.439 14.719 1.712.462 4.704.435 6.361-.057zm126.214 14.54c-10.301-1.29-17.495-5.46-22.419-12.996-3.422-5.238-5.198-11.365-5.541-19.117-.353-7.993 1.173-15.653 4.34-21.785 3.825-7.405 10.138-12.527 18.036-14.633 3.397-.906 10.215-1.158 14.092-.521 6.457 1.06 11.143 3.369 15.325 7.55 4.348 4.348 7.163 10.214 8.323 17.342.539 3.313.763 8.42.531 12.113l-.195 3.109h-20.347l-20.347.157c0 .086.246 1.366.548 2.844 1.696 8.322 6.091 11.915 14.534 11.88 4.716-.02 8.271-1.172 13.494-4.375 1.543-.947 2.055-1.147 2.304-.9.834.828 7.7 10.37 7.59 10.549-.326.527-5.978 4.066-8.134 5.093-5.523 2.631-9.803 3.599-16.444 3.72-2.619.048-5.179.035-5.689-.029zm13.754-41.306c-.003-.4-.119-1.799-.259-3.109-.638-5.978-2.408-9.341-5.879-11.169-1.294-.682-1.624-.737-4.441-.737-2.738 0-3.192.07-4.537.701-3.634 1.704-5.717 5.633-6.573 12.396-.138 1.091-.255 2.133-.259 2.315-.006.259 2.36.331 10.972.331h10.98zm-217.218 6.681V37.043h8.467c4.657 0 8.467.081 8.467.18 0 .39 1.355 10.839 1.483 11.44.113.53.291.286 1.031-1.417 1.426-3.281 2.501-4.896 4.763-7.159 3.575-3.576 6.812-4.917 11.762-4.871 3.628.033 5.673.446 5.771 1.165.069.505-2.755 18.117-2.934 18.296-.047.047-1.011-.091-2.141-.307-9.089-1.739-13.894 2.149-16.82 13.608-.508 1.989-.535 2.906-.535 18.256v16.162h-9.657-9.657zm119.069.331l-10.528-32.676c-.094-.261 2.113-.331 10.475-.331 9.863 0 10.603.032 10.724.463.072.255 2.664 11.567 5.76 25.139l5.808 24.342c.098-.184 2.836-11.496 6.085-25.139l5.907-24.805h9.868c5.428 0 9.868.075 9.868.167s-4.54 14.588-10.088 32.213l-10.217 32.509c-.121.432-.906.463-11.692.463h-11.562z" /></g></svg>